<svg width="48" height="48" viewBox="0 0 48 48" fill="none" xmlns="http://www.w3.org/2000/svg">
<g id="Sub">
<g id="Group">
<path id="Vector" d="M21.2808 31.0776C20.8344 31.0776 20.4103 30.899 20.0978 30.5865L14.6964 25.1837C14.0491 24.5362 14.0491 23.4646 14.6964 22.8172C15.3437 22.1697 16.4151 22.1697 17.0624 22.8172L21.2808 27.0367L30.8785 17.4368C31.5258 16.7893 32.5972 16.7893 33.2445 17.4368C33.8918 18.0842 33.8918 19.1558 33.2445 19.8032L22.4638 30.5865C22.1513 30.899 21.7272 31.0776 21.2808 31.0776Z" fill="#47EB7E"/>
<path id="Vector_2" d="M23.9833 48C22.5771 48 21.1709 47.5312 20.0772 46.5935L16.5505 43.5572C16.1934 43.2447 15.3006 42.9321 14.8319 42.9321H10.9928C7.68936 42.9321 5.01092 40.253 5.01092 36.9488V33.1312C5.01092 32.6623 4.69843 31.7916 4.38595 31.4344L1.3727 27.8847C-0.457567 25.7191 -0.457567 22.3033 1.3727 20.1377L4.38595 16.5879C4.69843 16.2307 5.01092 15.36 5.01092 14.8912V11.0512C5.01092 7.74698 7.68936 5.06791 10.9928 5.06791H14.8542C15.3229 5.06791 16.2157 4.73302 16.5729 4.44279L20.0996 1.40651C22.287 -0.468837 25.702 -0.468837 27.8894 1.40651L31.416 4.44279C31.7731 4.75535 32.6659 5.06791 33.1346 5.06791H36.9291C40.2325 5.06791 42.911 7.74698 42.911 11.0512V14.8465C42.911 15.3153 43.2458 16.2084 43.5583 16.5656L46.5938 20.093C48.4687 22.2809 48.4687 25.6967 46.5938 27.8847L43.5583 31.4121C43.2458 31.7693 42.911 32.6623 42.911 33.1312V36.9265C42.911 40.2307 40.2325 42.9098 36.9291 42.9098H33.1346C32.6659 42.9098 31.7731 43.2447 31.416 43.5349L27.8894 46.5712C26.7957 47.5312 25.3895 48 23.9833 48ZM10.9928 8.41675C9.54195 8.41675 8.35897 9.6 8.35897 11.0512V14.8688C8.35897 16.1414 7.75632 17.7712 6.93047 18.7312L3.91722 22.2809C3.13601 23.1963 3.13601 24.7814 3.91722 25.6967L6.93047 29.2465C7.75632 30.2288 8.35897 31.8363 8.35897 33.1088V36.9265C8.35897 38.3777 9.54195 39.5609 10.9928 39.5609H14.8542C16.1488 39.5609 17.7782 40.1637 18.7603 41.0121L22.287 44.0484C23.2021 44.8298 24.8092 44.8298 25.7243 44.0484L29.2509 41.0121C30.233 40.1861 31.8624 39.5609 33.157 39.5609H36.9514C38.4022 39.5609 39.5852 38.3777 39.5852 36.9265V33.1312C39.5852 31.8363 40.1879 30.2065 41.0361 29.2242L44.0716 25.6967C44.8528 24.7814 44.8528 23.174 44.0716 22.2586L41.0361 18.7312C40.1879 17.7488 39.5852 16.1191 39.5852 14.8242V11.0512C39.5852 9.6 38.4022 8.41675 36.9514 8.41675H33.157C31.8624 8.41675 30.233 7.81395 29.2509 6.96558L25.7243 3.9293C24.8092 3.14791 23.2021 3.14791 22.287 3.9293L18.7603 6.98791C17.7782 7.81395 16.1265 8.41675 14.8542 8.41675H10.9928Z" fill="#47EB7E"/>
</g>
</g>
</svg>
