<svg width="48" height="48" viewBox="0 0 48 48" fill="none" xmlns="http://www.w3.org/2000/svg">
<g id="Iconsax/Linear/bookmark">
<path id="Vector" d="M18 44H30C40 44 44 40 44 30V18C44 8 40 4 30 4H18C8 4 4 8 4 18V30C4 40 8 44 18 44Z" stroke="#FB79C7" stroke-width="3" stroke-linecap="round" stroke-linejoin="round"/>
<path id="Vector_2" d="M34 4.88V24.84C34 28.78 31.18 30.32 27.72 28.24L25.08 26.66C24.48 26.3 23.52 26.3 22.92 26.66L20.28 28.24C16.82 30.3 14 28.78 14 24.84V4.88" stroke="#FB79C7" stroke-width="3" stroke-linecap="round" stroke-linejoin="round"/>
<path id="Vector_3" d="M18 44H30C40 44 44 40 44 30V18C44 8 40 4 30 4H18C8 4 4 8 4 18V30C4 40 8 44 18 44Z" stroke="#FB79C7" stroke-width="3" stroke-linecap="round" stroke-linejoin="round"/>
<path id="Vector_4" d="M34 4.88V24.84C34 28.78 31.18 30.32 27.72 28.24L25.08 26.66C24.48 26.3 23.52 26.3 22.92 26.66L20.28 28.24C16.82 30.3 14 28.78 14 24.84V4.88" stroke="#FB79C7" stroke-width="3" stroke-linecap="round" stroke-linejoin="round"/>
</g>
</svg>
