<svg width="48" height="48" viewBox="0 0 48 48" fill="none" xmlns="http://www.w3.org/2000/svg">
<g id="Iconsax/Linear/booksquare">
<path id="Vector" d="M18 44H30C40 44 44 40 44 30V18C44 8 40 4 30 4H18C8 4 4 8 4 18V30C4 40 8 44 18 44Z" stroke="#4CD4FF" stroke-width="3" stroke-linecap="round" stroke-linejoin="round"/>
<path id="Vector_2" d="M24.0002 16.2V35.32M36.7602 30.54V15.16C36.7602 13.62 35.5202 12.5 34.0002 12.62H33.9202C31.2402 12.84 27.1802 14.22 24.9002 15.64L24.6802 15.78C24.3202 16 23.7002 16 23.3202 15.78L23.0002 15.58C20.7402 14.16 16.6802 12.82 14.0002 12.6C12.4802 12.48 11.2402 13.62 11.2402 15.14V30.54C11.2402 31.76 12.2402 32.92 13.4602 33.06L13.8202 33.12C16.5802 33.48 20.8602 34.9 23.3002 36.24L23.3602 36.26C23.7002 36.46 24.2602 36.46 24.5802 36.26C27.0202 34.9 31.3202 33.5 34.1002 33.12L34.5202 33.06C35.7602 32.92 36.7602 31.78 36.7602 30.54Z" stroke="#4CD4FF" stroke-width="3" stroke-linecap="round" stroke-linejoin="round"/>
</g>
</svg>
