<svg width="48" height="48" viewBox="0 0 48 48" fill="none" xmlns="http://www.w3.org/2000/svg">
<g id="progress">
<g id="Group">
<path id="Vector" d="M46.3256 42.295H1.67442C0.75907 42.295 0 41.5359 0 40.6206C0 39.7052 0.75907 38.9462 1.67442 38.9462H46.3256C47.2409 38.9462 48 39.7052 48 40.6206C48 41.5359 47.2409 42.295 46.3256 42.295Z" fill="#FFF500"/>
<path id="Vector_2" d="M28.9783 41.8723H19.0209C18.1137 41.8723 17.3613 41.2909 17.3613 40.5897V9.80895C17.3613 6.86767 19.4635 5.10632 23.0039 5.10632H24.9954C28.5358 5.10632 30.6379 6.86767 30.6379 9.80895V40.5897C30.6379 41.2909 29.8856 41.8723 28.9783 41.8723ZM20.6805 39.3072H27.3188V9.80895C27.3188 7.84239 26.1239 7.67139 24.9954 7.67139H23.0039C21.8754 7.67139 20.6805 7.84239 20.6805 9.80895V39.3072Z" fill="#FFF500"/>
<path id="Vector_3" d="M12.6271 41.8723H3.71415C2.80057 41.8723 2.04297 41.2898 2.04297 40.5875V20.0301C2.04297 17.0836 4.00382 15.3191 7.27933 15.3191H9.06192C12.3374 15.3191 14.2983 17.0836 14.2983 20.0301V40.5875C14.2983 41.2898 13.5407 41.8723 12.6271 41.8723ZM5.38533 39.3026H10.9559V20.0301C10.9559 17.8888 9.7304 17.8888 9.06192 17.8888H7.27933C6.61086 17.8888 5.38533 17.8888 5.38533 20.0301V39.3026Z" fill="#FFF500"/>
<path id="Vector_4" d="M44.2853 41.8723H35.3724C34.4588 41.8723 33.7012 41.3101 33.7012 40.6322V29.0577C33.7012 26.2137 35.662 24.5106 38.9375 24.5106H40.7201C43.9956 24.5106 45.9565 26.2137 45.9565 29.0577V40.6322C45.9565 41.3101 45.1989 41.8723 44.2853 41.8723ZM37.0435 39.3921H42.6141V29.0577C42.6141 26.9909 41.3886 26.9909 40.7201 26.9909H38.9375C38.2691 26.9909 37.0435 26.9909 37.0435 29.0577V39.3921Z" fill="#FFF500"/>
</g>
</g>
</svg>
