<svg width="48" height="48" viewBox="0 0 48 48" fill="none" xmlns="http://www.w3.org/2000/svg">
<g id="Iconsax/Linear/teacher">
<path id="Vector" d="M20.0991 5.05958L8.05906 12.9196C4.19906 15.4396 4.19906 21.0796 8.05906 23.5996L20.0991 31.4596C22.2591 32.8796 25.8191 32.8796 27.9791 31.4596L39.9591 23.5996C43.7991 21.0796 43.7991 15.4596 39.9591 12.9396L27.9791 5.07958C25.8191 3.63958 22.2591 3.63958 20.0991 5.05958Z" stroke="#5251FF" stroke-width="3" stroke-linecap="round" stroke-linejoin="round"/>
<path id="Vector_2" d="M11.2602 26.16L11.2402 35.54C11.2402 38.08 13.2002 40.8 15.6002 41.6L21.9802 43.72C23.0802 44.08 24.9002 44.08 26.0202 43.72L32.4002 41.6C34.8002 40.8 36.7602 38.08 36.7602 35.54V26.26M42.8002 30V18" stroke="#5251FF" stroke-width="3" stroke-linecap="round" stroke-linejoin="round"/>
</g>
</svg>
